<svg width="45" height="45" viewBox="0 0 45 45" fill="none" xmlns="http://www.w3.org/2000/svg">
<path d="M22.4998 16.6419C19.2743 16.6419 16.6419 19.2743 16.6419 22.4998C16.6419 25.7254 19.2743 28.3578 22.4998 28.3578C25.7254 28.3578 28.3577 25.7254 28.3577 22.4998C28.3577 19.2743 25.7254 16.6419 22.4998 16.6419ZM40.0692 22.4998C40.0692 20.0741 40.0911 17.6703 39.9549 15.2489C39.8187 12.4364 39.1771 9.94027 37.1204 7.88363C35.0594 5.8226 32.5677 5.18539 29.7552 5.04916C27.3294 4.91293 24.9256 4.9349 22.5042 4.9349C20.0785 4.9349 17.6746 4.91293 15.2533 5.04916C12.4408 5.18539 9.94467 5.82699 7.88803 7.88363C5.82699 9.94467 5.18978 12.4364 5.05355 15.2489C4.91732 17.6746 4.9393 20.0785 4.9393 22.4998C4.9393 24.9212 4.91732 27.3294 5.05355 29.7508C5.18978 32.5633 5.83139 35.0594 7.88803 37.1161C9.94906 39.1771 12.4408 39.8143 15.2533 39.9505C17.679 40.0868 20.0828 40.0648 22.5042 40.0648C24.93 40.0648 27.3338 40.0868 29.7552 39.9505C32.5677 39.8143 35.0638 39.1727 37.1204 37.1161C39.1815 35.055 39.8187 32.5633 39.9549 29.7508C40.0955 27.3294 40.0692 24.9256 40.0692 22.4998ZM22.4998 31.513C17.512 31.513 13.4867 27.4876 13.4867 22.4998C13.4867 17.512 17.512 13.4867 22.4998 13.4867C27.4876 13.4867 31.513 17.512 31.513 22.4998C31.513 27.4876 27.4876 31.513 22.4998 31.513ZM31.8822 15.2225C30.7176 15.2225 29.7772 14.2821 29.7772 13.1175C29.7772 11.953 30.7176 11.0125 31.8822 11.0125C33.0467 11.0125 33.9871 11.953 33.9871 13.1175C33.9875 13.394 33.9333 13.6679 33.8276 13.9235C33.722 14.179 33.5669 14.4112 33.3714 14.6067C33.1758 14.8023 32.9437 14.9573 32.6881 15.063C32.4326 15.1686 32.1587 15.2228 31.8822 15.2225Z" fill="#0066FF"/>
</svg>
