<svg width="45" height="45" viewBox="0 0 45 45" fill="none" xmlns="http://www.w3.org/2000/svg">
<path d="M31.1248 10.9125C29.8434 9.44911 29.1371 7.57012 29.1373 5.625H23.3436V28.875C23.2998 30.1335 22.7689 31.3258 21.8629 32.2003C20.9569 33.0749 19.7466 33.5633 18.4873 33.5625C15.8248 33.5625 13.6123 31.3875 13.6123 28.6875C13.6123 25.4625 16.7248 23.0437 19.9311 24.0375V18.1125C13.4623 17.25 7.7998 22.275 7.7998 28.6875C7.7998 34.9312 12.9748 39.375 18.4686 39.375C24.3561 39.375 29.1373 34.5938 29.1373 28.6875V16.8938C31.4867 18.581 34.3074 19.4862 37.1998 19.4813V13.6875C37.1998 13.6875 33.6748 13.8563 31.1248 10.9125Z" fill="#0066FF"/>
</svg>
